<svg viewBox="1 -33 511.99998 511" xmlns="http://www.w3.org/2000/svg"><path d="m195 38.429688h-89.867188c-10.429687 0-18.960937-8.535157-18.960937-18.964844 0-10.429688 8.53125-18.964844 18.960937-18.964844h89.867188c10.429688 0 18.960938 8.535156 18.960938 18.964844 0 10.429687-8.53125 18.964844-18.960938 18.964844zm0 0" fill="#ffde55"/><path d="m157.128906 76.355469h-117.429687v-47.488281c0-15.667969 12.703125-28.367188 28.367187-28.367188h60.695313c15.664062 0 28.367187 12.699219 28.367187 28.367188zm0 0" fill="#66d3d0"/><path d="m155.898438 340.238281h-48.113282v-39.960937h48.113282c18.207031 0 34.347656-10.925782 41.117187-27.828125l24.839844-62.039063 37.097656 14.855469-24.839844 62.039063c-12.875 32.15625-43.574219 52.933593-78.214843 52.933593zm0 0" fill="#ffde55"/><path d="m67.90625 229.429688-45.699219 171.894531c-5.96875 22.445312 10.953125 44.453125 34.179688 44.453125h17.84375c20.875 0 39.199219-13.890625 44.832031-33.992188l49.507812-176.601562zm0 0" fill="#7de2e2"/><path d="m45.464844 313.847656c40.347656-5.8125 78.445312-8.304687 103.679687-9.367187l19.425781-69.296875-100.664062-5.753906zm0 0" fill="#66d3d0"/><path d="m56.445312 393.203125 38.359376-141.761719 37.136718 2.121094-42.382812 148.832031c-2.101563 7.386719-8.847656 12.476563-16.527344 12.476563 0 0-21.882812 0-16.585938-21.667969zm0 0" fill="#66d3d0"/><path d="m79.050781 309.652344c13.429688-1.429688 26.203125-2.519532 37.871094-3.347656l15.015625-52.742188-37.136719-2.121094zm0 0" fill="#59c1bc"/><path d="m289 135.636719h191.320312v53.328125h-191.320312zm0 0" fill="#c6c5ca"/><path d="m229.296875 262.488281h-179.347656c-27.585938 0-49.949219-22.363281-49.949219-49.949219v-100.476562c0-27.585938 22.363281-49.949219 49.949219-49.949219h179.347656c46.921875 0 84.960937 38.039063 84.960937 84.960938v30.449219c0 46.925781-38.039062 84.964843-84.960937 84.964843zm0 0" fill="#a0f0f2"/><path d="m229.296875 62.113281h-179.347656c-27.585938 0-49.949219 22.363281-49.949219 49.949219v100.476562c0 27.585938 22.363281 49.949219 49.949219 49.949219h25.550781c11.566406-25.867187 40.179688-77.058593 93.070312-100.1875 49.257813-21.539062 74.285157-68.683593 85.246094-96.578125-7.765625-2.339844-15.992187-3.609375-24.519531-3.609375zm0 0" fill="#7de2e2"/><path d="m375.511719 212.414062c-12.871094 0-23.402344-10.53125-23.402344-23.402343v-53.421875c0-12.871094 10.53125-23.402344 23.402344-23.402344 12.871093 0 23.402343 10.53125 23.402343 23.402344v53.421875c0 12.871093-10.53125 23.402343-23.402343 23.402343zm0 0" fill="#ff737d"/><path d="m375.511719 112.1875c-12.871094 0-23.402344 10.53125-23.402344 23.402344v39.027344c0-12.871094 10.53125-23.402344 23.402344-23.402344 12.871093 0 23.402343 10.53125 23.402343 23.402344v-39.027344c0-12.871094-10.53125-23.402344-23.402343-23.402344zm0 0" fill="#ed5d5d"/><path d="m512 126.050781c0-27.675781-33.933594-41.445312-52.894531-21.28125-13.792969 14.664063-22.339844 35.023438-22.339844 57.53125 0 22.507813 8.546875 42.867188 22.339844 57.53125 18.960937 20.160157 52.894531 6.394531 52.894531-21.28125zm0 0" fill="#ff737d"/><path d="m459.105469 104.769531c-13.792969 14.664063-22.339844 35.023438-22.339844 57.53125 0 8.375 1.1875 16.453125 3.382813 24.054688 3.710937-12.820313 10.296874-24.273438 18.957031-33.476563 18.960937-20.164062 52.894531-6.394531 52.894531 21.28125v-48.109375c0-27.675781-33.933594-41.441406-52.894531-21.28125zm0 0" fill="#ed5d5d"/><path d="m233.59375 189.710938h-152.929688c-15.074218 0-27.410156-12.335938-27.410156-27.410157 0-15.078125 12.335938-27.410156 27.410156-27.410156h152.929688c15.074219 0 27.410156 12.332031 27.410156 27.410156 0 15.074219-12.335937 27.410157-27.410156 27.410157zm0 0" fill="#ffeb99"/><path d="m80.664062 134.890625c-15.074218 0-27.410156 12.332031-27.410156 27.410156 0 15.074219 12.335938 27.410157 27.410156 27.410157h46.164063c11.804687-10.730469 25.644531-20.371094 41.742187-27.410157 15.925782-6.964843 29.316407-16.609375 40.523438-27.410156zm0 0" fill="#ffde55"/></svg>